<svg width="23" height="24" viewBox="0 0 23 24" fill="none" xmlns="http://www.w3.org/2000/svg">
<path fill-rule="evenodd" clip-rule="evenodd" d="M15.4372 2.73508V3.76997C18.2189 4.06186 19.6419 5.72477 19.6419 8.71446V16.9848C19.6419 20.3106 17.8893 22 14.4403 22H8.20161C4.75263 22 3 20.3106 3 16.9848V8.71446C3 6.72428 3.62709 5.30019 4.91342 4.46874C5.11619 4.31904 5.37853 4.30859 5.59061 4.44176C5.80269 4.57494 5.92793 4.82876 5.9139 5.09698C5.89987 5.3652 5.749 5.60155 5.52443 5.70708C4.67223 6.25548 4.27025 7.21077 4.27025 8.71446V8.97981H16C16.3508 8.97981 16.6351 9.29266 16.6351 9.67859C16.6351 10.0645 16.3508 10.3774 16 10.3774H4.27025V16.9848C4.27025 19.5233 5.41188 20.5759 8.20161 20.5936H14.4403C17.1899 20.5936 18.3636 19.5145 18.3636 16.9759V8.70561C18.3636 6.4943 17.4712 5.42403 15.4372 5.16752V5.83975C15.3903 6.19806 15.1052 6.45964 14.7764 6.44599C14.4476 6.43234 14.1812 6.14786 14.1589 5.78668V2.67316C14.1652 2.48618 14.2393 2.30977 14.3647 2.18341C14.4901 2.05706 14.6564 1.99132 14.8262 2.00092C15.1764 2.02461 15.4466 2.34923 15.4372 2.73508ZM8.27806 6.29279C8.1572 6.42409 7.99358 6.49667 7.82375 6.4943C7.47613 6.48465 7.20019 6.16923 7.2047 5.78668V2.73508C7.24125 2.37709 7.51642 2.10645 7.84385 2.10645C8.17128 2.10645 8.44644 2.37709 8.483 2.73508V3.69921H12.1169C12.4677 3.69921 12.752 4.01206 12.752 4.39798C12.752 4.7839 12.4677 5.09675 12.1169 5.09675H8.46692V5.79553C8.46693 5.9824 8.39891 6.16149 8.27806 6.29279ZM15.196 12.6152C14.752 12.6152 14.3921 13.0112 14.3921 13.4997C14.3921 13.9882 14.752 14.3843 15.196 14.3843C15.6401 14.3843 16 13.9882 16 13.4997C16 13.2636 15.9142 13.0373 15.7617 12.8711C15.6092 12.705 15.4026 12.6128 15.188 12.6152H15.196ZM10.5331 13.4997C10.5331 13.0112 10.893 12.6152 11.337 12.6152C11.7811 12.6152 12.141 13.0112 12.141 13.4997C12.141 13.9882 11.7811 14.3843 11.337 14.3843C10.893 14.3843 10.5331 13.9882 10.5331 13.4997ZM7.48609 12.6152C7.04207 12.6152 6.68213 13.0112 6.68213 13.4997C6.68213 13.9882 7.04207 14.3843 7.48609 14.3843C7.9301 14.3843 8.29005 13.9882 8.29005 13.4997C8.29006 13.2636 8.20425 13.0373 8.05174 12.8711C7.89922 12.705 7.69266 12.6128 7.47805 12.6152H7.48609ZM14.3921 17.082C14.3921 16.5935 14.752 16.1975 15.196 16.1975H15.188C15.4026 16.1952 15.6092 16.2873 15.7617 16.4534C15.9142 16.6196 16 16.8459 16 17.082C16 17.5706 15.6401 17.9666 15.196 17.9666C14.752 17.9666 14.3921 17.5706 14.3921 17.082ZM11.337 16.1975C10.893 16.1975 10.5331 16.5935 10.5331 17.082C10.5331 17.5706 10.893 17.9666 11.337 17.9666C11.7811 17.9666 12.141 17.5706 12.141 17.082C12.141 16.5935 11.7811 16.1975 11.337 16.1975ZM6.68213 17.082C6.68213 16.5935 7.04207 16.1975 7.48609 16.1975H7.47805C7.69266 16.1952 7.89922 16.2873 8.05174 16.4534C8.20425 16.6196 8.29006 16.8459 8.29005 17.082C8.29005 17.5706 7.9301 17.9666 7.48609 17.9666C7.04207 17.9666 6.68213 17.5706 6.68213 17.082Z" fill="#616164"/>
</svg>
