<svg width="21" height="21" viewBox="0 0 21 21" fill="none" xmlns="http://www.w3.org/2000/svg">
<g id="&#229;&#149;&#134;&#229;&#174;&#182;&#229;&#156;&#176;&#229;&#157;&#128;&#229;&#186;&#147;">
<path id="Combined Shape" fill-rule="evenodd" clip-rule="evenodd" d="M5.88255 6.00033C5.88255 10.4448 10.8135 14.4448 10.8135 14.4448C10.8135 14.4448 15.7444 10.4448 15.7444 6.00033C15.7444 3.05481 13.5368 0.666992 10.8135 0.666992C8.0902 0.666992 5.88255 3.05481 5.88255 6.00033ZM10.8135 16.0004C10.8141 16.0004 10.803 15.9919 10.7811 15.9752C10.5332 15.7868 8.90698 14.5503 7.3917 12.667H5.27999C4.86652 12.667 4.48058 12.8912 4.25225 13.264L0.986244 18.5974C0.852547 18.8157 0.78125 19.0718 0.78125 19.3337C0.78125 20.0701 1.33316 20.667 2.01398 20.667H19.5991C19.8433 20.667 20.082 20.5885 20.285 20.4415C20.8507 20.0319 21.0022 19.2037 20.6234 18.5918L17.3216 13.2585C17.0928 12.8888 16.7086 12.667 16.2973 12.667H14.2353C12.72 14.5503 11.0937 15.7868 10.8459 15.9752C10.824 15.9919 10.8128 16.0004 10.8135 16.0004ZM5.88255 19.3337V18.0004H15.7444V19.3337H5.88255ZM10.8135 8.00033C11.8347 8.00033 12.6626 7.1049 12.6626 6.00033C12.6626 4.89576 11.8347 4.00033 10.8135 4.00033C9.79225 4.00033 8.96438 4.89576 8.96438 6.00033C8.96438 7.1049 9.79225 8.00033 10.8135 8.00033Z" fill="#616164"/>
</g>
</svg>
